<?xml version="1.0" encoding="UTF-8"?>
<svg id="Layer_4" data-name="Layer 4" xmlns="http://www.w3.org/2000/svg" viewBox="0 0 1044 512">
  <defs>
    <style>
      .cls-1 {
        fill: #fff;
      }
    </style>
  </defs>
  <rect class="cls-1" x="757" y="156" width="54" height="200"/>
  <rect class="cls-1" x="903" y="156" width="54" height="200"/>
  <rect class="cls-1" x="807" y="158.07" width="54" height="118.59" transform="translate(90.57 653.39) rotate(-45)"/>
  <path class="cls-1" d="M186.38,155.85c-55.23,0-100,44.77-100,100s44.77,100,100,100,100-44.77,100-100-44.77-100-100-100Zm0,146c-25.41,0-46-20.59-46-46s20.59-46,46-46,46,20.59,46,46-20.59,46-46,46Z"/>
  <rect class="cls-1" x="703" y="302" width="108" height="54"/>
  <rect class="cls-1" x="386.19" y="56.04" width="54" height="253.62" transform="translate(596.04 -230.34) rotate(90)"/>
  <rect class="cls-1" x="286.38" y="301.85" width="168" height="54"/>
  <polygon class="cls-1" points="454.38 301.67 454.38 324.87 427.8 351.45 286.38 210.03 324.56 171.85 454.38 301.67"/>
  <rect class="cls-1" x="486" y="156" width="54" height="200"/>
  <rect class="cls-1" x="561.74" y="143.03" width="54" height="220.95" transform="translate(351.69 -342.05) rotate(45)"/>
  <rect class="cls-1" x="600.15" y="241.07" width="54" height="112.06" transform="translate(-26.39 530.48) rotate(-45)"/>
</svg>